<?xml version="1.0" encoding="UTF-8"?>
<!-- Created with Inkscape (http://www.inkscape.org/) -->
<svg id="SVGRoot" width="256" height="256" enable-background="new" version="1.1" viewBox="0 0 256 256" xmlns="http://www.w3.org/2000/svg" xmlns:cc="http://creativecommons.org/ns#" xmlns:dc="http://purl.org/dc/elements/1.1/" xmlns:rdf="http://www.w3.org/1999/02/22-rdf-syntax-ns#">
 <metadata>
  <rdf:RDF>
   <cc:Work rdf:about="">
    <dc:format>image/svg+xml</dc:format>
    <dc:type rdf:resource="http://purl.org/dc/dcmitype/StillImage"/>
    <dc:title/>
    <dc:rights>
     <cc:Agent>
      <dc:title>Copyright (C) 2021 chipmunk.sm &lt;dannico@linuxmail.org&gt;</dc:title>
     </cc:Agent>
    </dc:rights>
   </cc:Work>
  </rdf:RDF>
 </metadata>
 <g transform="matrix(2.019 0 0 1.8447 -88.272 -109.64)" fill="none">
  <path d="m90.103 131.19c16.718 13.912 22.16 20.779 28.373 37.896 5.6514-23.785 14.004-39.355 29.815-60.879m-15.851 15.076-60.404-0.0153m60.404-17.332-60.404-0.0153m60.404-17.332-60.404-0.01528m-12.878-18.431 0.33928 117.36h95.522l0.0778-93.498-14.684-23.857z" stroke="#fff" stroke-width="13.472"/>
  <path d="m90.103 131.19c16.718 13.912 22.16 20.779 28.373 37.896 5.6514-23.785 14.004-39.355 29.815-60.879m-15.851 15.076-60.404-0.0153m60.404-17.332-60.404-0.0153m60.404-17.332-60.404-0.01528m-12.878-18.431 0.33928 117.36h95.522l0.0778-93.498-14.684-23.857z" stroke="#000" stroke-width="4.1453"/>
 </g>
</svg>
