<svg id="SVGRoot" enable-background="new" version="1.1" viewBox="0 0 256 256" xmlns="http://www.w3.org/2000/svg" xmlns:cc="http://creativecommons.org/ns#" xmlns:dc="http://purl.org/dc/elements/1.1/" xmlns:rdf="http://www.w3.org/1999/02/22-rdf-syntax-ns#">
 <metadata>
  <rdf:RDF>
   <cc:Work rdf:about="">
    <dc:format>image/svg+xml</dc:format>
    <dc:type rdf:resource="http://purl.org/dc/dcmitype/StillImage"/>
    <dc:title/>
    <dc:rights>
     <cc:Agent>
      <dc:title>Copyright (C) 2021 chipmunk.sm &lt;dannico@linuxmail.org&gt;</dc:title>
     </cc:Agent>
    </dc:rights>
   </cc:Work>
  </rdf:RDF>
 </metadata>
 <g>
  <path d="m31.168 19.755 0.68501 216.49h192.86l0.15707-172.48-29.647-44.009z" fill="none" stroke="#fff" stroke-width="20"/>
  <g stroke="#fffffa" stroke-width="10">
   <path d="m59.574 65.148h6.4453v-22.246l-7.0117 1.4062v-3.5938l6.9727-1.4062h3.9453v25.84h6.4453v3.3203h-16.797z"/>
   <path d="m84.34 63.507h4.1211v4.9609h-4.1211z"/>
   <path d="m62.289 115.15h13.77v3.3203h-18.516v-3.3203q2.2461-2.3242 6.1133-6.2305 3.8867-3.9258 4.8828-5.0586 1.8945-2.1289 2.6367-3.5937 0.76172-1.4844 0.76172-2.9102 0-2.3242-1.6406-3.7891-1.6211-1.4648-4.2383-1.4648-1.8555 0-3.9258 0.64453-2.0508 0.64453-4.3945 1.9531v-3.9844q2.3828-0.95703 4.4531-1.4453 2.0703-0.48828 3.7891-0.48828 4.5312 0 7.2266 2.2656 2.6953 2.2656 2.6953 6.0547 0 1.7969-0.68359 3.418-0.66406 1.6016-2.4414 3.7891-0.48828 0.56641-3.1055 3.2812-2.6172 2.6953-7.3828 7.5586z"/>
   <path d="m84.34 113.5h4.1211v4.9609h-4.1211z"/>
   <path d="m70.844 152.74q2.832 0.60547 4.4141 2.5195 1.6016 1.9141 1.6016 4.7266 0 4.3164-2.9688 6.6797t-8.4375 2.3633q-1.8359 0-3.7891-0.3711-1.9336-0.35156-4.0039-1.0742v-3.8086q1.6406 0.95703 3.5938 1.4453t4.082 0.48828q3.7109 0 5.6445-1.4648 1.9531-1.4648 1.9531-4.2578 0-2.5781-1.8164-4.0234-1.7969-1.4648-5.0195-1.4648h-3.3984v-3.2422h3.5547q2.9102 0 4.4531-1.1524 1.543-1.1719 1.543-3.3594 0-2.2461-1.6016-3.4375-1.582-1.2109-4.5508-1.2109-1.6211 0-3.4766 0.35156-1.8555 0.35157-4.082 1.0938v-3.5156q2.2461-0.625 4.1992-0.9375 1.9727-0.3125 3.7109-0.3125 4.4922 0 7.1094 2.0508 2.6172 2.0312 2.6172 5.5078 0 2.4219-1.3867 4.1016-1.3867 1.6602-3.9453 2.3047z"/>
   <path d="m84.34 163.5h4.1211v4.9609h-4.1211z"/>
   <path d="m69.731 192.74-9.9609 15.566h9.9609zm-1.0352-3.4375h4.9609v19.004h4.1602v3.2812h-4.1602v6.875h-3.9258v-6.875h-13.164v-3.8086z"/>
   <path d="m84.34 213.5h4.1211v4.9609h-4.1211z"/>
  </g>
 </g>
 <path d="m31.168 19.755 0.68501 216.49h192.86l0.15707-172.48-29.647-44.009z" fill="none" stroke="#000" stroke-width="7.9999"/>
 <g stroke-width="1px">
  <path d="m59.574 65.148h6.4453v-22.246l-7.0117 1.4062v-3.5938l6.9727-1.4062h3.9453v25.84h6.4453v3.3203h-16.797z"/>
  <path d="m84.34 63.507h4.1211v4.9609h-4.1211z"/>
  <path d="m62.289 115.15h13.77v3.3203h-18.516v-3.3203q2.2461-2.3242 6.1133-6.2305 3.8867-3.9258 4.8828-5.0586 1.8945-2.1289 2.6367-3.5937 0.76172-1.4844 0.76172-2.9102 0-2.3242-1.6406-3.7891-1.6211-1.4648-4.2383-1.4648-1.8555 0-3.9258 0.64453-2.0508 0.64453-4.3945 1.9531v-3.9844q2.3828-0.95703 4.4531-1.4453 2.0703-0.48828 3.7891-0.48828 4.5312 0 7.2266 2.2656 2.6953 2.2656 2.6953 6.0547 0 1.7969-0.68359 3.418-0.66406 1.6016-2.4414 3.7891-0.48828 0.56641-3.1055 3.2812-2.6172 2.6953-7.3828 7.5586z"/>
  <path d="m84.34 113.5h4.1211v4.9609h-4.1211z"/>
  <path d="m70.844 152.74q2.832 0.60547 4.4141 2.5195 1.6016 1.9141 1.6016 4.7266 0 4.3164-2.9688 6.6797t-8.4375 2.3633q-1.8359 0-3.7891-0.3711-1.9336-0.35156-4.0039-1.0742v-3.8086q1.6406 0.95703 3.5938 1.4453t4.082 0.48828q3.7109 0 5.6445-1.4648 1.9531-1.4648 1.9531-4.2578 0-2.5781-1.8164-4.0234-1.7969-1.4648-5.0195-1.4648h-3.3984v-3.2422h3.5547q2.9102 0 4.4531-1.1524 1.543-1.1719 1.543-3.3594 0-2.2461-1.6016-3.4375-1.582-1.2109-4.5508-1.2109-1.6211 0-3.4766 0.35156-1.8555 0.35157-4.082 1.0938v-3.5156q2.2461-0.625 4.1992-0.9375 1.9727-0.3125 3.7109-0.3125 4.4922 0 7.1094 2.0508 2.6172 2.0312 2.6172 5.5078 0 2.4219-1.3867 4.1016-1.3867 1.6602-3.9453 2.3047z"/>
  <path d="m84.34 163.5h4.1211v4.9609h-4.1211z"/>
  <path d="m69.731 192.74-9.9609 15.566h9.9609zm-1.0352-3.4375h4.9609v19.004h4.1602v3.2812h-4.1602v6.875h-3.9258v-6.875h-13.164v-3.8086z"/>
  <path d="m84.34 213.5h4.1211v4.9609h-4.1211z"/>
 </g>
</svg>
