<?xml version="1.0" encoding="UTF-8"?>
<!-- Created with Inkscape (http://www.inkscape.org/) -->
<svg id="SVGRoot" width="256" height="256" enable-background="new" version="1.1" viewBox="0 0 256 256" xmlns="http://www.w3.org/2000/svg" xmlns:cc="http://creativecommons.org/ns#" xmlns:dc="http://purl.org/dc/elements/1.1/" xmlns:rdf="http://www.w3.org/1999/02/22-rdf-syntax-ns#">
 <metadata>
  <rdf:RDF>
   <cc:Work rdf:about="">
    <dc:format>image/svg+xml</dc:format>
    <dc:type rdf:resource="http://purl.org/dc/dcmitype/StillImage"/>
    <dc:title/>
    <dc:rights>
     <cc:Agent>
      <dc:title>Copyright (C) 2021 chipmunk.sm &lt;dannico@linuxmail.org&gt;</dc:title>
     </cc:Agent>
    </dc:rights>
   </cc:Work>
  </rdf:RDF>
 </metadata>
 <g transform="translate(9.418 .56959)">
  <rect x="53.724" y="70.23" width="128.49" height="37.219" fill="#fff" opacity=".95"/>
  <g>
   <g transform="matrix(.95497 0 0 .82884 6.174 15.771)" stroke="#000" stroke-width="1.124" aria-label="100%">
    <path d="m65.805 99.598h6.4453v-22.246l-7.0117 1.4062v-3.5938l6.9727-1.4062h3.9453v25.84h6.4453v3.3203h-16.797z"/>
    <path d="m99.028 76.355q-3.0469 0-4.5898 3.0078-1.5234 2.9883-1.5234 9.0039 0 5.9961 1.5234 9.0039 1.543 2.9883 4.5898 2.9883 3.0664 0 4.5898-2.9883 1.543-3.0078 1.543-9.0039 0-6.0156-1.543-9.0039-1.5234-3.0078-4.5898-3.0078zm0-3.125q4.9023 0 7.4805 3.8867 2.5977 3.8672 2.5977 11.25 0 7.3633-2.5977 11.25-2.5781 3.8672-7.4805 3.8672-4.9023 0-7.5-3.8672-2.5781-3.8867-2.5781-11.25 0-7.3828 2.5781-11.25 2.5977-3.8867 7.5-3.8867z"/>
    <path d="m124.5 76.355q-3.0469 0-4.5898 3.0078-1.5234 2.9883-1.5234 9.0039 0 5.9961 1.5234 9.0039 1.543 2.9883 4.5898 2.9883 3.0664 0 4.5898-2.9883 1.543-3.0078 1.543-9.0039 0-6.0156-1.543-9.0039-1.5234-3.0078-4.5898-3.0078zm0-3.125q4.9023 0 7.4805 3.8867 2.5977 3.8672 2.5977 11.25 0 7.3633-2.5977 11.25-2.5781 3.8672-7.4805 3.8672t-7.5-3.8672q-2.5781-3.8867-2.5781-11.25 0-7.3828 2.5781-11.25 2.5976-3.8867 7.5-3.8867z"/>
    <path d="m166.33 90.086q-1.6992 0-2.6758 1.4453-0.95703 1.4453-0.95703 4.0234 0 2.5391 0.95703 4.0039 0.97656 1.4453 2.6758 1.4453 1.6602 0 2.6172-1.4453 0.97656-1.4648 0.97656-4.0039 0-2.5586-0.97656-4.0039-0.95703-1.4648-2.6172-1.4648zm0-2.4805q3.0859 0 4.9024 2.1484 1.8164 2.1484 1.8164 5.8008 0 3.6523-1.8359 5.8008-1.8164 2.1289-4.8828 2.1289-3.125 0-4.9414-2.1289-1.8164-2.1484-1.8164-5.8008 0-3.6719 1.8164-5.8008 1.8359-2.1484 4.9414-2.1484zm-20.156-11.895q-1.6797 0-2.6562 1.4648-0.95703 1.4453-0.95703 3.9844 0 2.5781 0.95703 4.0234t2.6562 1.4453 2.6562-1.4453q0.97657-1.4453 0.97657-4.0234 0-2.5195-0.97657-3.9844-0.97656-1.4648-2.6562-1.4648zm17.637-2.4805h3.125l-18.242 30.254h-3.125zm-17.637 0q3.0859 0 4.9219 2.1484 1.8359 2.1289 1.8359 5.7812 0 3.6914-1.8359 5.8203-1.8164 2.1289-4.9219 2.1289t-4.9219-2.1289q-1.7969-2.1484-1.7969-5.8203 0-3.6328 1.8164-5.7812t4.9023-2.1484z"/>
   </g>
   <path d="m118.58 19.283c-40.47 0.0023-73.277 31.377-73.277 70.08 6e-6 38.702 32.806 70.077 73.277 70.08 40.472 0 73.281-31.376 73.281-70.08 1e-5 -38.704-32.809-70.08-73.281-70.08zm31.309 134.77 40.154 87.348z" fill="none" opacity=".95" stroke="#fff" stroke-width="20"/>
   <path d="m118.58 19.283c-40.47 0.0023-73.277 31.377-73.277 70.08 6e-6 38.702 32.806 70.077 73.277 70.08 40.472 0 73.281-31.376 73.281-70.08 1e-5 -38.704-32.809-70.08-73.281-70.08zm31.309 134.77 40.154 87.348z" fill="none" opacity=".95" stroke="#000" stroke-width="8"/>
  </g>
 </g>
</svg>
