<?xml version="1.0" encoding="UTF-8"?>
<!-- Created with Inkscape (http://www.inkscape.org/) -->
<svg id="SVGRoot" width="256" height="256" enable-background="new" version="1.1" viewBox="0 0 256 256" xmlns="http://www.w3.org/2000/svg" xmlns:cc="http://creativecommons.org/ns#" xmlns:dc="http://purl.org/dc/elements/1.1/" xmlns:rdf="http://www.w3.org/1999/02/22-rdf-syntax-ns#">
 <metadata>
  <rdf:RDF>
   <cc:Work rdf:about="">
    <dc:format>image/svg+xml</dc:format>
    <dc:type rdf:resource="http://purl.org/dc/dcmitype/StillImage"/>
    <dc:title/>
    <dc:rights>
     <cc:Agent>
      <dc:title>Copyright (C) 2021 chipmunk.sm &lt;dannico@linuxmail.org&gt;</dc:title>
     </cc:Agent>
    </dc:rights>
   </cc:Work>
  </rdf:RDF>
 </metadata>
 <g transform="matrix(2.019 0 0 1.8447 -87.499 -107.94)" fill="none" stroke-width="1.1391">
  <g transform="translate(-3.8269,-7.9833)" enable-background="new">
   <path d="m120.52 100.29-64.344 0.17858m44.216-10.719 20.12 10.547 44.406 0.44359 0.0115 81.343h-108.4l-0.32506-92.394z" stroke="#fff" stroke-width="5.1817"/>
   <path d="m120.52 100.29-64.344 0.17858m44.216-10.719 20.12 10.547 44.406 0.44359 0.0115 81.343h-108.4l-0.32506-92.394z" stroke="#000" stroke-width="2.5908"/>
  </g>
  <g transform="matrix(.74171 0 0 .64338 27.947 50.767)" stroke="#000" stroke-width="2.5312">
   <g transform="matrix(1.497,0,0,1.4666,-56.707,-120.22)">
    <path d="m75.851 141.07v13.218h67.646v-13.218zm59.948 3.9603c1.3247 6e-5 2.3987 1.2518 2.3988 2.7961 2.8e-4 1.5446-1.0738 2.797-2.3988 2.797-1.3251-5e-5 -2.3991-1.2524-2.3988-2.797 1.6e-4 -1.5443 1.0741-2.7961 2.3988-2.7961z" enable-background="new" opacity=".95" stroke="#fff" stroke-width="5.0624"/>
    <path d="m75.851 141.07v13.218h67.646v-13.218zm59.948 3.9603c1.3247 6e-5 2.3987 1.2518 2.3988 2.7961 2.8e-4 1.5446-1.0738 2.797-2.3988 2.797-1.3251-5e-5 -2.3991-1.2524-2.3988-2.797 1.6e-4 -1.5443 1.0741-2.7961 2.3988-2.7961z" enable-background="new" opacity=".95" stroke="#000" stroke-width="2.5312"/>
   </g>
   <g transform="matrix(1.497,0,0,1.4666,-56.707,-89.197)">
    <path d="m75.851 141.07v13.218h67.646v-13.218zm59.948 3.9603c1.3247 6e-5 2.3987 1.2518 2.3988 2.7961 2.8e-4 1.5446-1.0738 2.797-2.3988 2.797-1.3251-5e-5 -2.3991-1.2524-2.3988-2.797 1.6e-4 -1.5443 1.0741-2.7961 2.3988-2.7961z" enable-background="new" opacity=".95" stroke="#fff" stroke-width="5.0624"/>
    <path d="m75.851 141.07v13.218h67.646v-13.218zm59.948 3.9603c1.3247 6e-5 2.3987 1.2518 2.3988 2.7961 2.8e-4 1.5446-1.0738 2.797-2.3988 2.797-1.3251-5e-5 -2.3991-1.2524-2.3988-2.797 1.6e-4 -1.5443 1.0741-2.7961 2.3988-2.7961z" enable-background="new" opacity=".95" stroke="#000" stroke-width="2.5312"/>
   </g>
   <g transform="matrix(1.497,0,0,1.4666,-56.707,-58.174)">
    <path d="m75.851 141.07v13.218h67.646v-13.218zm59.948 3.9603c1.3247 6e-5 2.3987 1.2518 2.3988 2.7961 2.8e-4 1.5446-1.0738 2.797-2.3988 2.797-1.3251-5e-5 -2.3991-1.2524-2.3988-2.797 1.6e-4 -1.5443 1.0741-2.7961 2.3988-2.7961z" enable-background="new" opacity=".95" stroke="#fff" stroke-width="5.0624"/>
    <path d="m75.851 141.07v13.218h67.646v-13.218zm59.948 3.9603c1.3247 6e-5 2.3987 1.2518 2.3988 2.7961 2.8e-4 1.5446-1.0738 2.797-2.3988 2.797-1.3251-5e-5 -2.3991-1.2524-2.3988-2.797 1.6e-4 -1.5443 1.0741-2.7961 2.3988-2.7961z" enable-background="new" opacity=".95" stroke="#000" stroke-width="2.5312"/>
   </g>
  </g>
 </g>
</svg>
