<?xml version="1.0" encoding="UTF-8"?>
<!-- Created with Inkscape (http://www.inkscape.org/) -->
<svg id="SVGRoot" width="256" height="256" enable-background="new" version="1.1" viewBox="0 0 256 256" xmlns="http://www.w3.org/2000/svg" xmlns:cc="http://creativecommons.org/ns#" xmlns:dc="http://purl.org/dc/elements/1.1/" xmlns:rdf="http://www.w3.org/1999/02/22-rdf-syntax-ns#">
 <metadata>
  <rdf:RDF>
   <cc:Work rdf:about="">
    <dc:format>image/svg+xml</dc:format>
    <dc:type rdf:resource="http://purl.org/dc/dcmitype/StillImage"/>
    <dc:title/>
    <dc:rights>
     <cc:Agent>
      <dc:title>Copyright (C) 2021 chipmunk.sm &lt;dannico@linuxmail.org&gt;</dc:title>
     </cc:Agent>
    </dc:rights>
   </cc:Work>
  </rdf:RDF>
 </metadata>
 <g transform="matrix(2.019 0 0 1.8447 -87.499 -107.94)" fill="none" stroke-width="1.1391">
  <g transform="translate(-3.8269,-7.9833)" enable-background="new">
   <path d="m120.52 100.29-64.344 0.17858m44.216-10.719 20.12 10.547 44.406 0.44359 0.0115 81.343h-108.4l-0.32506-92.394z" stroke="#fff" stroke-width="5.1817"/>
   <path d="m120.52 100.29-64.344 0.17858m44.216-10.719 20.12 10.547 44.406 0.44359 0.0115 81.343h-108.4l-0.32506-92.394z" stroke="#000" stroke-width="2.5908"/>
  </g>
  <g stroke-width="2.4312">
   <g transform="matrix(.10959 0 0 .10627 80.89 122.32)" enable-background="new">
    <path d="m132.37 169.65c21.432 0 38.856-18.446 38.856-41.137 0-22.69-17.423-41.137-38.856-41.137s-37.732 18.446-37.732 41.137 16.299 41.137 37.732 41.137zm21.586-155.41h-43.173v24.346c-8.2381 2.2621-15.992 5.7368-23.106 10.308l-16.366-17.327-30.529 32.298 16.719 17.7c-4.0309 7.4391-7.0927 15.531-9.0311 24.09h-24.031v45.707h24.78c2.1366 8.162 5.3085 15.858 9.3615 22.947l-17.798 18.843 30.529 32.322 18.15-19.216c6.6081 4.0111 13.767 7.1126 21.322 9.1648v27.355h43.173v-27.355c7.5553-2.0522 14.714-5.1538 21.322-9.1648l18.15 19.216 30.529-32.322-17.798-18.843c4.053-7.0893 7.2249-14.762 9.3615-22.947h24.78v-45.707h-24.054c-1.9384-8.5585-4.9781-16.651-9.0311-24.09l16.719-17.7-30.507-32.322-16.366 17.327c-7.1147-4.5474-14.846-8.0455-23.106-10.284z" stroke="#fff" stroke-width="48.016"/>
    <path d="m132.37 169.65c21.432 0 38.856-18.446 38.856-41.137 0-22.69-17.423-41.137-38.856-41.137s-37.732 18.446-37.732 41.137 16.299 41.137 37.732 41.137zm21.586-155.41h-43.173v24.346c-8.2381 2.2621-15.992 5.7368-23.106 10.308l-16.366-17.327-30.529 32.298 16.719 17.7c-4.0309 7.4391-7.0927 15.531-9.0311 24.09h-24.031v45.707h24.78c2.1366 8.162 5.3085 15.858 9.3615 22.947l-17.798 18.843 30.529 32.322 18.15-19.216c6.6081 4.0111 13.767 7.1126 21.322 9.1648v27.355h43.173v-27.355c7.5553-2.0522 14.714-5.1538 21.322-9.1648l18.15 19.216 30.529-32.322-17.798-18.843c4.053-7.0893 7.2249-14.762 9.3615-22.947h24.78v-45.707h-24.054c-1.9384-8.5585-4.9781-16.651-9.0311-24.09l16.719-17.7-30.507-32.322-16.366 17.327c-7.1147-4.5474-14.846-8.0455-23.106-10.284z" stroke="#000" stroke-width="24.008"/>
   </g>
   <g transform="matrix(.10959 0 0 .10627 92.452 110.53)" enable-background="new">
    <path d="m132.37 169.65c21.432 0 38.856-18.446 38.856-41.137 0-22.69-17.423-41.137-38.856-41.137s-37.732 18.446-37.732 41.137 16.299 41.137 37.732 41.137zm21.586-155.41h-43.173v24.346c-8.2381 2.2621-15.992 5.7368-23.106 10.308l-16.366-17.327-30.529 32.298 16.719 17.7c-4.0309 7.4391-7.0927 15.531-9.0311 24.09h-24.031v45.707h24.78c2.1366 8.162 5.3085 15.858 9.3615 22.947l-17.798 18.843 30.529 32.322 18.15-19.216c6.6081 4.0111 13.767 7.1126 21.322 9.1648v27.355h43.173v-27.355c7.5553-2.0522 14.714-5.1538 21.322-9.1648l18.15 19.216 30.529-32.322-17.798-18.843c4.053-7.0893 7.2249-14.762 9.3615-22.947h24.78v-45.707h-24.054c-1.9384-8.5585-4.9781-16.651-9.0311-24.09l16.719-17.7-30.507-32.322-16.366 17.327c-7.1147-4.5474-14.846-8.0455-23.106-10.284z" stroke="#fff" stroke-width="48.016"/>
    <path d="m132.37 169.65c21.432 0 38.856-18.446 38.856-41.137 0-22.69-17.423-41.137-38.856-41.137s-37.732 18.446-37.732 41.137 16.299 41.137 37.732 41.137zm21.586-155.41h-43.173v24.346c-8.2381 2.2621-15.992 5.7368-23.106 10.308l-16.366-17.327-30.529 32.298 16.719 17.7c-4.0309 7.4391-7.0927 15.531-9.0311 24.09h-24.031v45.707h24.78c2.1366 8.162 5.3085 15.858 9.3615 22.947l-17.798 18.843 30.529 32.322 18.15-19.216c6.6081 4.0111 13.767 7.1126 21.322 9.1648v27.355h43.173v-27.355c7.5553-2.0522 14.714-5.1538 21.322-9.1648l18.15 19.216 30.529-32.322-17.798-18.843c4.053-7.0893 7.2249-14.762 9.3615-22.947h24.78v-45.707h-24.054c-1.9384-8.5585-4.9781-16.651-9.0311-24.09l16.719-17.7-30.507-32.322-16.366 17.327c-7.1147-4.5474-14.846-8.0455-23.106-10.284z" stroke="#000" stroke-width="24.008"/>
   </g>
   <g transform="matrix(.10959 0 0 .10627 104.24 128.65)" enable-background="new">
    <path d="m132.37 169.65c21.432 0 38.856-18.446 38.856-41.137 0-22.69-17.423-41.137-38.856-41.137s-37.732 18.446-37.732 41.137 16.299 41.137 37.732 41.137zm21.586-155.41h-43.173v24.346c-8.2381 2.2621-15.992 5.7368-23.106 10.308l-16.366-17.327-30.529 32.298 16.719 17.7c-4.0309 7.4391-7.0927 15.531-9.0311 24.09h-24.031v45.707h24.78c2.1366 8.162 5.3085 15.858 9.3615 22.947l-17.798 18.843 30.529 32.322 18.15-19.216c6.6081 4.0111 13.767 7.1126 21.322 9.1648v27.355h43.173v-27.355c7.5553-2.0522 14.714-5.1538 21.322-9.1648l18.15 19.216 30.529-32.322-17.798-18.843c4.053-7.0893 7.2249-14.762 9.3615-22.947h24.78v-45.707h-24.054c-1.9384-8.5585-4.9781-16.651-9.0311-24.09l16.719-17.7-30.507-32.322-16.366 17.327c-7.1147-4.5474-14.846-8.0455-23.106-10.284z" stroke="#fff" stroke-width="48.016"/>
    <path d="m132.37 169.65c21.432 0 38.856-18.446 38.856-41.137 0-22.69-17.423-41.137-38.856-41.137s-37.732 18.446-37.732 41.137 16.299 41.137 37.732 41.137zm21.586-155.41h-43.173v24.346c-8.2381 2.2621-15.992 5.7368-23.106 10.308l-16.366-17.327-30.529 32.298 16.719 17.7c-4.0309 7.4391-7.0927 15.531-9.0311 24.09h-24.031v45.707h24.78c2.1366 8.162 5.3085 15.858 9.3615 22.947l-17.798 18.843 30.529 32.322 18.15-19.216c6.6081 4.0111 13.767 7.1126 21.322 9.1648v27.355h43.173v-27.355c7.5553-2.0522 14.714-5.1538 21.322-9.1648l18.15 19.216 30.529-32.322-17.798-18.843c4.053-7.0893 7.2249-14.762 9.3615-22.947h24.78v-45.707h-24.054c-1.9384-8.5585-4.9781-16.651-9.0311-24.09l16.719-17.7-30.507-32.322-16.366 17.327c-7.1147-4.5474-14.846-8.0455-23.106-10.284z" stroke="#000" stroke-width="24.008"/>
   </g>
  </g>
 </g>
</svg>
