<?xml version="1.0" encoding="UTF-8"?>
<!-- Created with Inkscape (http://www.inkscape.org/) -->
<svg id="SVGRoot" width="256" height="256" enable-background="new" version="1.1" viewBox="0 0 256 256" xmlns="http://www.w3.org/2000/svg" xmlns:cc="http://creativecommons.org/ns#" xmlns:dc="http://purl.org/dc/elements/1.1/" xmlns:rdf="http://www.w3.org/1999/02/22-rdf-syntax-ns#">
 <metadata>
  <rdf:RDF>
   <cc:Work rdf:about="">
    <dc:format>image/svg+xml</dc:format>
    <dc:type rdf:resource="http://purl.org/dc/dcmitype/StillImage"/>
    <dc:title/>
    <dc:rights>
     <cc:Agent>
      <dc:title>Copyright (C) 2021 chipmunk.sm &lt;dannico@linuxmail.org&gt;</dc:title>
     </cc:Agent>
    </dc:rights>
   </cc:Work>
  </rdf:RDF>
 </metadata>
 <g transform="matrix(1.7136 0 0 1.4089 -68.116 -64.929)" fill="none" stroke-width="1.4148">
  <g transform="translate(-4.7887,-10.79)" enable-background="new">
   <path d="m120.52 100.29-64.344 0.17858m7.8705 81.615h-7.5162l-0.32506-92.394 44.187 0.06012 20.12 10.547 44.406 0.44359 6e-3 9.4407" stroke="#fff" stroke-width="6.4358"/>
   <path d="m120.52 100.29-64.344 0.17858m7.8705 81.615h-7.5162l-0.32506-92.394 44.187 0.06012 20.12 10.547 44.406 0.44359 6e-3 9.4407" stroke="#000" stroke-width="3.2179"/>
  </g>
  <g transform="translate(3.9069 .96453)" enable-background="new">
   <path d="m120.52 100.29-64.344 0.17858m7.8705 81.615h-7.5162l-0.32506-92.394 44.187 0.06012 20.12 10.547 44.406 0.44359 6e-3 10.86" stroke="#fff" stroke-width="6.4358"/>
   <path d="m120.52 100.29-64.344 0.17858m7.8705 81.615h-7.5162l-0.32506-92.394 44.187 0.06012 20.12 10.547 44.406 0.44359 6e-3 10.86" stroke="#000" stroke-width="3.2179"/>
  </g>
  <g transform="translate(12.552,12.895)" enable-background="new">
   <path d="m120.52 100.29-64.344 0.17858m44.216-10.719 20.12 10.547 44.406 0.44359 0.0115 81.343h-108.4l-0.32506-92.394z" stroke="#fff" stroke-width="6.4358"/>
   <path d="m120.52 100.29-64.344 0.17858m44.216-10.719 20.12 10.547 44.406 0.44359 0.0115 81.343h-108.4l-0.32506-92.394z" stroke="#000" stroke-width="3.2179"/>
  </g>
 </g>
</svg>
