<?xml version="1.0" encoding="UTF-8"?>
<!-- Created with Inkscape (http://www.inkscape.org/) -->
<svg id="SVGRoot" width="256" height="256" enable-background="new" version="1.1" viewBox="0 0 256 256" xmlns="http://www.w3.org/2000/svg" xmlns:cc="http://creativecommons.org/ns#" xmlns:dc="http://purl.org/dc/elements/1.1/" xmlns:rdf="http://www.w3.org/1999/02/22-rdf-syntax-ns#">
 <metadata>
  <rdf:RDF>
   <cc:Work rdf:about="">
    <dc:format>image/svg+xml</dc:format>
    <dc:type rdf:resource="http://purl.org/dc/dcmitype/StillImage"/>
    <dc:title/>
    <dc:rights>
     <cc:Agent>
      <dc:title>Copyright (C) 2021 chipmunk.sm &lt;dannico@linuxmail.org&gt;</dc:title>
     </cc:Agent>
    </dc:rights>
   </cc:Work>
  </rdf:RDF>
 </metadata>
 <g transform="translate(-2.7723 .29788)" fill="none">
  <path d="m181.89 181.49-121.96-0.02823m121.96-31.972-121.96-0.02822m121.96-31.972-121.96-0.02823m121.96-31.972-121.96-0.028224m121.96-31.972-121.96-0.028187m-26.001-34 0.68501 216.49h192.86l0.15707-216.48z" stroke="#fff" stroke-width="19.999"/>
  <path d="m181.89 181.49-121.96-0.02823m121.96-31.972-121.96-0.02822m121.96-31.972-121.96-0.02823m121.96-31.972-121.96-0.028224m121.96-31.972-121.96-0.028187m-26.001-34 0.68501 216.49h192.86l0.15707-216.48z" stroke="#000" stroke-width="4.9999"/>
  <g transform="matrix(2.019 0 0 1.8447 -76.768 -117.38)">
   <path d="m107.1 110.47a17.072 18.246 0 0 0-17.071 18.246 17.072 18.246 0 0 0 17.071 18.246 17.072 18.246 0 0 0 17.072-18.246 17.072 18.246 0 0 0-17.072-18.246zm7.294 35.088 12.023 31.756z" opacity=".95" stroke="#fffffd" stroke-width="8.2907"/>
   <path d="m107.1 110.47a17.072 18.246 0 0 0-17.071 18.246 17.072 18.246 0 0 0 17.071 18.246 17.072 18.246 0 0 0 17.072-18.246 17.072 18.246 0 0 0-17.072-18.246zm7.294 35.088 12.023 31.756z" opacity=".95" stroke="#000" stroke-width="4.1453"/>
  </g>
 </g>
</svg>
